mtllib model.mtl
v -3.0 -1.5 -2.0
v 3.0 -1.5 -2.0
v 3.0 -1.5 2.0
v -3.0 -1.5 2.0
v -3.0 1.5 -2.0
v 3.0 1.5 -2.0
v 3.0 1.5 2.0
v -3.0 1.5 2.0
v -2.0 2.75 -2.0
v 2.0 2.75 -2.0
v 2.0 2.75 2.0
v -2.0 2.75 2.0
v -2.0 4.25 -2.0
v 2.0 4.25 -2.0
v 2.0 4.25 2.0
v -2.0 4.25 2.0
v -0.4 -1.25 1.9599999999999997
v 0.4 -1.25 1.9599999999999997
v 0.4 -1.25 2.0599999999999996
v -0.4 -1.25 2.0599999999999996
v -0.4 1.25 1.9599999999999997
v 0.4 1.25 1.9599999999999997
v 0.4 1.25 2.0599999999999996
v -0.4 1.25 2.0599999999999996
v -1.75 1.75 1.9599999999999997
v -1.25 1.75 1.9599999999999997
v -1.25 1.75 2.0599999999999996
v -1.75 1.75 2.0599999999999996
v -1.75 2.25 1.9599999999999997
v -1.25 2.25 1.9599999999999997
v -1.25 2.25 2.0599999999999996
v -1.75 2.25 2.0599999999999996
v 1.25 1.75 1.9599999999999997
v 1.75 1.75 1.9599999999999997
v 1.75 1.75 2.0599999999999996
v 1.25 1.75 2.0599999999999996
v 1.25 2.25 1.9599999999999997
v 1.75 2.25 1.9599999999999997
v 1.75 2.25 2.0599999999999996
v 1.25 2.25 2.0599999999999996
usemtl mat0
f 1 2 3
f 1 3 4
f 5 6 7
f 5 7 8
f 4 3 7
f 4 7 8
f 1 2 6
f 1 6 5
f 1 4 8
f 1 8 5
f 2 3 7
f 2 7 6
usemtl mat1
f 9 10 11
f 9 11 12
f 13 14 15
f 13 15 16
f 12 11 15
f 12 15 16
f 9 10 14
f 9 14 13
f 9 12 16
f 9 16 13
f 10 11 15
f 10 15 14
usemtl mat2
f 17 18 19
f 17 19 20
f 21 22 23
f 21 23 24
f 20 19 23
f 20 23 24
f 17 18 22
f 17 22 21
f 17 20 24
f 17 24 21
f 18 19 23
f 18 23 22
usemtl mat3
f 25 26 27
f 25 27 28
f 29 30 31
f 29 31 32
f 28 27 31
f 28 31 32
f 25 26 30
f 25 30 29
f 25 28 32
f 25 32 29
f 26 27 31
f 26 31 30
usemtl mat4
f 33 34 35
f 33 35 36
f 37 38 39
f 37 39 40
f 36 35 39
f 36 39 40
f 33 34 38
f 33 38 37
f 33 36 40
f 33 40 37
f 34 35 39
f 34 39 38